<svg xmlns="http://www.w3.org/2000/svg" xmlns:xlink="http://www.w3.org/1999/xlink" width="1000" zoomAndPan="magnify" viewBox="0 0 750 749.999995" height="1000" preserveAspectRatio="xMidYMid meet" version="1.0"><defs><g/><clipPath id="bc4e3aca5c"><path d="M 480 561 L 558 561 L 558 632 L 480 632 Z M 480 561 " clip-rule="nonzero"/></clipPath><clipPath id="cb6c3946eb"><path d="M 480.933594 574.515625 L 546.300781 561.777344 L 557.425781 618.847656 L 492.058594 631.585938 Z M 480.933594 574.515625 " clip-rule="nonzero"/></clipPath><clipPath id="3b99da5d8f"><path d="M 393.28125 581.574219 L 513.628906 581.574219 L 513.628906 609.691406 L 393.28125 609.691406 Z M 393.28125 581.574219 " clip-rule="nonzero"/></clipPath></defs><rect x="-75" width="900" fill="#ffffff" y="-74.999999" height="899.999994" fill-opacity="1"/><rect x="-75" width="900" fill="#0011ad" y="-74.999999" height="899.999994" fill-opacity="1"/><g fill="#f0f1f1" fill-opacity="1"><g transform="translate(58.44629, 581.673412)"><g><path d="M 188.078125 -414.09375 L 242.578125 -414.09375 L 375.09375 -93.5 C 382.21875 -77.832031 389.609375 -62.785156 397.265625 -48.359375 C 404.921875 -33.929688 414.269531 -17.8125 425.3125 0 L 349.96875 0 C 347.832031 -11.394531 344.804688 -23.945312 340.890625 -37.65625 C 336.972656 -51.375 330.382812 -69.988281 321.125 -93.5 L 308.828125 -122.890625 L 121.828125 -122.890625 L 109.53125 -93.5 C 100.625 -69.988281 94.125 -51.375 90.03125 -37.65625 C 85.9375 -23.945312 82.820312 -11.394531 80.6875 0 L 5.34375 0 C 16.382812 -16.738281 25.554688 -31.960938 32.859375 -45.671875 C 40.160156 -59.390625 47.019531 -73.550781 53.4375 -88.15625 Z M 139.453125 -165.640625 L 291.203125 -165.640625 L 215.328125 -349.4375 Z M 139.453125 -165.640625 "/></g></g></g><g fill="#c2a012" fill-opacity="1"><g transform="translate(372.559614, 580.518741)"><g><path d="M 150.671875 -414.078125 C 178.453125 -414.078125 203.648438 -408.734375 226.265625 -398.046875 C 248.890625 -387.359375 266.878906 -372.394531 280.234375 -353.15625 C 293.597656 -333.925781 300.28125 -311.488281 300.28125 -285.84375 C 300.28125 -260.550781 293.597656 -238.195312 280.234375 -218.78125 C 266.878906 -199.375 248.890625 -184.238281 226.265625 -173.375 C 203.648438 -162.507812 178.453125 -157.078125 150.671875 -157.078125 L 100.453125 -157.078125 L 100.453125 -118.609375 C 100.453125 -98.660156 100.894531 -78.710938 101.78125 -58.765625 C 102.675781 -38.828125 105.4375 -19.238281 110.0625 0 L 37.40625 0 C 42.03125 -19.238281 44.785156 -38.828125 45.671875 -58.765625 C 46.566406 -78.710938 47.015625 -98.660156 47.015625 -118.609375 L 47.015625 -295.46875 C 47.015625 -315.414062 46.566406 -335.363281 45.671875 -355.3125 C 44.785156 -375.257812 42.03125 -394.847656 37.40625 -414.078125 Z M 100.453125 -199.828125 L 134.640625 -199.828125 C 170.972656 -199.828125 198.046875 -207.304688 215.859375 -222.265625 C 233.671875 -237.222656 242.578125 -258.414062 242.578125 -285.84375 C 242.578125 -313.269531 233.671875 -334.375 215.859375 -349.15625 C 198.046875 -363.945312 170.972656 -371.34375 134.640625 -371.34375 L 100.453125 -371.34375 Z M 100.453125 -199.828125 "/></g></g></g><g clip-path="url(#bc4e3aca5c)"><g clip-path="url(#cb6c3946eb)"><path fill="#0011ad" d="M 480.933594 574.515625 L 546.253906 561.785156 L 557.375 618.855469 L 492.058594 631.585938 Z M 480.933594 574.515625 " fill-opacity="1" fill-rule="nonzero"/></g></g><g clip-path="url(#3b99da5d8f)"><path fill="#0011ad" d="M 393.28125 581.574219 L 513.667969 581.574219 L 513.667969 609.691406 L 393.28125 609.691406 Z M 393.28125 581.574219 " fill-opacity="1" fill-rule="nonzero"/></g></svg>